<?xml version="1.0" encoding="UTF-8"?>
<svg xmlns="http://www.w3.org/2000/svg" xmlns:xlink="http://www.w3.org/1999/xlink" viewBox="0 0 24 24" width="24px" height="24px">
<g id="surface143532309">
<path style=" stroke:none;fill-rule:nonzero;fill:rgb(100%,100%,100%);fill-opacity:1;" d="M 3.839844 1.445312 C 2.175781 1.445312 0.964844 2.441406 0.964844 3.816406 C 0.964844 5.191406 2.203125 6.234375 3.839844 6.234375 C 5.503906 6.234375 6.714844 5.21875 6.714844 3.789062 C 6.636719 2.410156 5.453125 1.445312 3.839844 1.445312 Z M 1.441406 7.199219 C 1.175781 7.199219 0.960938 7.414062 0.960938 7.679688 L 0.960938 21.601562 C 0.960938 21.863281 1.175781 22.078125 1.441406 22.078125 L 6.238281 22.078125 C 6.503906 22.078125 6.71875 21.863281 6.71875 21.601562 L 6.71875 7.679688 C 6.71875 7.414062 6.503906 7.199219 6.238281 7.199219 Z M 8.640625 7.199219 C 8.375 7.199219 8.160156 7.414062 8.160156 7.679688 L 8.160156 21.601562 C 8.160156 21.863281 8.375 22.078125 8.640625 22.078125 L 12.960938 22.078125 C 13.226562 22.078125 13.441406 21.863281 13.441406 21.601562 L 13.441406 14.160156 C 13.441406 13.023438 14.3125 12.097656 15.425781 12.007812 C 15.484375 12 15.542969 12 15.601562 12 C 15.65625 12 15.714844 12 15.773438 12.007812 C 16.886719 12.097656 17.761719 13.023438 17.761719 14.160156 L 17.761719 21.601562 C 17.761719 21.863281 17.976562 22.078125 18.238281 22.078125 L 22.558594 22.078125 C 22.824219 22.078125 23.039062 21.863281 23.039062 21.601562 L 23.039062 13.441406 C 23.039062 10.335938 21.375 7.199219 17.660156 7.199219 C 15.96875 7.199219 14.691406 7.851562 13.921875 8.394531 L 13.921875 7.679688 C 13.921875 7.414062 13.703125 7.199219 13.441406 7.199219 Z M 8.640625 7.199219 "/>
</g>
</svg>
